<svg xmlns="http://www.w3.org/2000/svg" viewBox="0 0 100 100">
  <rect width="100" height="100" fill="#a8dadc"/>
  <path d="M 4 20 C 20 6 44 4 60 12 S 94 18 96 40 C 98 62 86 90 60 94 S 16 92 8 70 C 2 52 -2 32 4 20 Z" fill="#8ab17d"/>
  <path d="M 12 34 L 21 18 L 30 34 Z M 25 34 L 35 14 L 45 34 Z" fill="#6d597a"/>
  <ellipse cx="68" cy="56" rx="13" ry="9" fill="#457b9d"/>
  <g fill="#e76f51">
    <rect x="14" y="64" width="8" height="8"/>
    <rect x="24" y="62" width="8" height="8"/>
    <rect x="14" y="74" width="8" height="8"/>
    <rect x="26" y="74" width="8" height="8"/>
    <rect x="34" y="68" width="8" height="8"/>
  </g>
  <text x="16" y="40" font-family="sans-serif" font-size="4.5" font-weight="700" fill="#264653">North</text>
  <text x="62" y="71" font-family="sans-serif" font-size="4.5" font-weight="700" fill="#264653">Lake</text>
  <text x="16" y="88" font-family="sans-serif" font-size="4.5" font-weight="700" fill="#264653">City</text>
  <view id="north" viewBox="5 4 50 40"/>
  <view id="lake" viewBox="48 36 40 40"/>
  <view id="city" viewBox="8 56 36 36"/>
</svg>
